<svg width="927" height="951" xmlns="http://www.w3.org/2000/svg" xmlns:xlink="http://www.w3.org/1999/xlink" xml:space="preserve" overflow="hidden"><g transform="translate(218 -1726)"><path d="M-169.684 2346.88C-89.6967 2269.95-27.3153 2208.09 80.664 2140.74 220.779 2053.34 371.946 1985.06 517.586 1907.22 452.059 2013.9 393.142 2124.92 321.004 2227.24 254.07 2322.18 172.503 2405.96 101.271 2497.72 97.8848 2502.08 93.8991 2517.27 98.3693 2514.02 241.985 2409.9 522.366 2192.41 522.366 2192.41 500.914 2312.97 522.6 2210.32 392.258 2460.32 386.437 2471.48 376.089 2494.46 376.089 2494.46 397.989 2606.36 367.137 2623.54 406.844 2595.83" stroke="#000000" stroke-width="137.5" stroke-miterlimit="8" fill="none" fill-rule="evenodd"/></g></svg>