<svg width="358" height="685" xmlns="http://www.w3.org/2000/svg" xmlns:xlink="http://www.w3.org/1999/xlink" xml:space="preserve" overflow="hidden"><g transform="translate(-491 -2006)"><path d="M819.287 2685.28C801.764 2679.79 731.651 2658.09 725.765 2654.58 714.41 2647.79 683.077 2595.75 677.63 2587.22 669.739 2541.83 666.927 2528.9 661.212 2481.76 659.806 2470.16 659.083 2458.49 658.018 2446.85 661.511 2435.7 662.562 2423.47 668.497 2413.4 705.965 2349.86 708.125 2376.76 788.356 2391.6 797.281 2399.03 827.618 2423.69 832.568 2430.88 838.376 2439.33 839.741 2450.09 843.327 2459.69 839.348 2475.39 839.504 2492.78 831.391 2506.81 821.857 2523.29 775.861 2520.28 767.679 2520.76 745.862 2515.24 669.937 2503.91 640.703 2479.58 630.74 2471.28 624.935 2458.96 616.272 2449.32 597.068 2427.94 570.444 2405.51 554.465 2380.51 543.312 2363.05 515.334 2303.81 509.245 2285.81 499.827 2257.97 499.342 2236.76 496.749 2208.42 513.234 2151.27 517.326 2107.92 546.957 2061.67 551.415 2054.71 558.358 2049.57 562.815 2042.62 584.347 2009.01 557.415 2034.48 586.967 2010.62" stroke="#000000" stroke-width="10.3125" stroke-miterlimit="8" stroke-dasharray="82.5 30.9375" fill="none" fill-rule="evenodd"/></g></svg>